<svg width="29" height="27" viewBox="0 0 29 27" fill="none" xmlns="http://www.w3.org/2000/svg">
<path d="M2 1.44643H6.54545L9.59091 16.8176C9.69482 17.3461 9.97944 17.8209 10.3949 18.1588C10.8104 18.4966 11.3303 18.6761 11.8636 18.6658H22.9091C23.4424 18.6761 23.9623 18.4966 24.3778 18.1588C24.7933 17.8209 25.0779 17.3461 25.1818 16.8176L27 7.18622H7.68182M12.2273 24.4056C12.2273 25.0396 11.7185 25.5536 11.0909 25.5536C10.4633 25.5536 9.95455 25.0396 9.95455 24.4056C9.95455 23.7716 10.4633 23.2577 11.0909 23.2577C11.7185 23.2577 12.2273 23.7716 12.2273 24.4056ZM24.7273 24.4056C24.7273 25.0396 24.2185 25.5536 23.5909 25.5536C22.9633 25.5536 22.4545 25.0396 22.4545 24.4056C22.4545 23.7716 22.9633 23.2577 23.5909 23.2577C24.2185 23.2577 24.7273 23.7716 24.7273 24.4056Z" stroke="white" stroke-width="2.58" stroke-linecap="round" stroke-linejoin="round"/>
</svg>
